<?xml version="1.0" encoding="utf-8"?>
<!-- Generator: Adobe Illustrator 24.0.3, SVG Export Plug-In . SVG Version: 6.00 Build 0)  -->
<svg version="1.1" id="Layer_1" focusable="false" xmlns="http://www.w3.org/2000/svg" xmlns:xlink="http://www.w3.org/1999/xlink"
	 x="0px" y="0px" viewBox="0 0 32 32" style="enable-background:new 0 0 32 32;" xml:space="preserve">
<style type="text/css">
	.st0{fill:#FFFFFF;}
</style>
<path class="st0" d="M16,19c-2.3,0-4.5-1.2-5.8-3.1l1.7-1.1c1.5,2.3,4.6,2.9,6.9,1.4c0.6-0.4,1-0.8,1.4-1.4l1.7,1.1
	C20.5,17.8,18.3,19,16,19z"/>
<path class="st0" d="M20,8c-1.1,0-2,0.9-2,2s0.9,2,2,2s2-0.9,2-2C22,8.9,21.1,8,20,8C20,8,20,8,20,8z"/>
<path class="st0" d="M12,8c-1.1,0-2,0.9-2,2s0.9,2,2,2s2-0.9,2-2C14,8.9,13.1,8,12,8C12,8,12,8,12,8z"/>
<path class="st0" d="M17.7,30L16,29l4-7h6c1.1,0,2-0.9,2-2c0,0,0,0,0,0V6c0-1.1-0.9-2-2-2c0,0,0,0,0,0H6C4.9,4,4,4.9,4,6
	c0,0,0,0,0,0v14c0,1.1,0.9,2,2,2c0,0,0,0,0,0h9v2H6c-2.2,0-4-1.8-4-4c0,0,0,0,0,0V6c0-2.2,1.8-4,4-4c0,0,0,0,0,0h20c2.2,0,4,1.8,4,4
	c0,0,0,0,0,0v14c0,2.2-1.8,4-4,4c0,0,0,0,0,0h-4.8L17.7,30z"/>
<title>Chat bot</title>
</svg>
