<?xml version="1.0" encoding="utf-8"?>
<!-- Generator: Adobe Illustrator 24.0.3, SVG Export Plug-In . SVG Version: 6.00 Build 0)  -->
<svg version="1.1" id="Layer_1" focusable="false" xmlns="http://www.w3.org/2000/svg" xmlns:xlink="http://www.w3.org/1999/xlink"
	 x="0px" y="0px" viewBox="0 0 32 32" style="enable-background:new 0 0 32 32;" xml:space="preserve">
<style type="text/css">
	.st0{fill:#FFFFFF;}
</style>
<path class="st0" d="M16,2C8.3,2,2,8.3,2,16s6.3,14,14,14s14-6.3,14-14C30,8.3,23.7,2,16,2z M4,16.4l1.3,0.4L7,19.3v1.3
	c0,0.3,0.1,0.5,0.3,0.7L10,24v2.4C6.4,24.3,4.2,20.5,4,16.4z M16,28c-0.9,0-1.7-0.1-2.6-0.3L14,26l1.8-4.5c0.1-0.3,0.1-0.7-0.1-0.9
	l-1.4-2.1c-0.2-0.3-0.5-0.4-0.8-0.4H8.5l-1.2-1.9L9.4,14H11v2h2v-2.7l3.9-6.8l-1.7-1L14.3,7h-2.7l-1.1-1.6c2.9-1.6,6.4-1.8,9.6-0.7
	V8c0,0.6,0.4,1,1,1h1.5c0.3,0,0.6-0.2,0.8-0.4l0.9-1.3c1.1,1.1,2.1,2.3,2.7,3.8h-4.1c-0.5,0-0.9,0.3-1,0.8l-0.7,4.5
	c-0.1,0.4,0.1,0.9,0.5,1.1L25,19l0.7,4.1C23.4,26.2,19.8,28,16,28z"/>
<title>Earth filled</title>
</svg>
