<?xml version="1.0" encoding="utf-8"?>
<!-- Generator: Adobe Illustrator 24.0.3, SVG Export Plug-In . SVG Version: 6.00 Build 0)  -->
<svg version="1.1" id="Layer_1" focusable="false" xmlns="http://www.w3.org/2000/svg" xmlns:xlink="http://www.w3.org/1999/xlink"
	 x="0px" y="0px" viewBox="0 0 32 32" style="enable-background:new 0 0 32 32;" xml:space="preserve">
<style type="text/css">
	.st0{fill:#FCFCFC;}
</style>
<path class="st0" d="M16,20c-2.2,0-4-1.8-4-4s1.8-4,4-4s4,1.8,4,4C20,18.2,18.2,20,16,20z M16,14c-1.1,0-2,0.9-2,2s0.9,2,2,2
	s2-0.9,2-2C18,14.9,17.1,14,16,14z"/>
<path class="st0" d="M16,24c-4.7-0.1-8.7-3.3-10-7.8L6,16L6,15.8c1.3-4.5,5.3-7.6,10-7.8c4.7,0.1,8.7,3.3,10,7.8L26,16L26,16.2
	C24.7,20.7,20.7,23.9,16,24z M8,16c1.1,3.5,4.3,5.9,8,6c3.7-0.1,6.9-2.5,8-6c-1.1-3.5-4.3-5.9-8-6C12.3,10.1,9.1,12.5,8,16z"/>
<path class="st0" d="M16,30C8.3,30,2,23.7,2,16S8.3,2,16,2s14,6.3,14,14C30,23.7,23.7,30,16,30z M16,4C9.4,4,4,9.4,4,16
	s5.4,12,12,12s12-5.4,12-12C28,9.4,22.6,4,16,4z"/>
<title>Accessibility color</title>
</svg>
