<?xml version="1.0" encoding="utf-8"?>
<!-- Generator: Adobe Illustrator 24.0.3, SVG Export Plug-In . SVG Version: 6.00 Build 0)  -->
<svg version="1.1" id="Layer_1" focusable="false" xmlns="http://www.w3.org/2000/svg" xmlns:xlink="http://www.w3.org/1999/xlink"
	 x="0px" y="0px" viewBox="0 0 32 32" style="enable-background:new 0 0 32 32;" xml:space="preserve">
<style type="text/css">
	.st0{fill:#FFFFFF;}
</style>
<path class="st0" d="M25,10L25,10c-0.6-4.9-5.1-8.5-10-7.9C10.8,2.6,7.5,5.9,7.1,10H7c-2.8,0-5,2.2-5,5s2.2,5,5,5h2v-9
	c0-3.9,3.1-7,7-7s7,3.1,7,7v10c0,1.9-1.3,3.5-3.2,3.9c-0.6-2.1-2.8-3.4-4.9-2.7s-3.4,2.8-2.7,4.9c0.6,2.1,2.8,3.4,4.9,2.7
	c1.4-0.4,2.5-1.5,2.8-2.9C22.8,26.5,25,24,25,21v-1c2.8,0,5-2.2,5-5S27.8,10,25,10z M4,15c0-1.7,1.3-3,3-3v6C5.3,18,4,16.7,4,15z
	 M16,28c-1.1,0-2-0.9-2-2s0.9-2,2-2s2,0.9,2,2S17.1,28,16,28z M25,18v-6c1.7,0,3,1.3,3,3S26.7,18,25,18z"/>
<title>Headset</title>
</svg>
