<svg id="Layer_1" data-name="Layer 1" xmlns="http://www.w3.org/2000/svg" viewBox="0 0 2495.01 492.44"><defs><style>.cls-1{fill:#fff;}</style></defs><title>medium-white</title><path class="cls-1" d="M1262.66,437.47c0,8.67,0,10.64,5.84,16l32.73,32.3v1.38H1156.11V425.06a101,101,0,0,1-96.24,67.37c-74.6,0-128.76-59.09-128.76-167.82,0-101.84,58.44-169.79,140.45-169.79a85.62,85.62,0,0,1,84.35,52.78V70.71a17,17,0,0,0-6.62-16.54l-31.17-30.34V22.46L1262.66,5.32Zm-106.55-19.69V213.51A54.11,54.11,0,0,0,1112.86,193c-35.26,0-69.35,32.3-69.35,128.23,0,89.82,29.42,121.53,66,121.53a58.26,58.26,0,0,0,46.55-25Zm202.78,69.33V211.35a18.61,18.61,0,0,0-5.84-16.55l-32.15-33.48v-1.38H1466v279.7c0,8.67,0,10.64,5.85,15.95l31.95,30.34v1.38Zm-5.26-428c0-32.64,26.17-59.09,58.44-59.09s58.44,26.46,58.44,59.09-26.16,59.09-58.43,59.09-58.45-26.46-58.45-59.09Zm503.95,377.79c0,8.67,0,11.23,5.84,16.55l32.73,32.3v1.38h-145.9V416.4c-13.29,44.71-53.77,75.5-99.93,76-64.68,0-99.35-47.67-99.35-137.88,0-43.53,0-91.2,1.36-144.78a16.85,16.85,0,0,0-5.84-16l-32.14-32.5v-1.38h144V339.77c0,59.1,8.58,98.49,45.19,98.49a58.39,58.39,0,0,0,47.15-29.74v-197a18.62,18.62,0,0,0-5.85-16.54l-32.33-33.68v-1.38h145.12Zm494,50.23c0-10.64,2-146.15,2-177.28,0-59.09-9.16-99.86-50.26-99.86a65.07,65.07,0,0,0-51.62,28.36,243,243,0,0,1,5.84,56.14c0,41-1.37,93.17-2,145.37a16.85,16.85,0,0,0,5.84,16l32.73,30.34v1.37H2147.64c0-9.84,2-146.15,2-177.27,0-60.08-9.16-99.87-49.67-99.87a58.35,58.35,0,0,0-48.31,29.15V440.43c0,8.66,0,10.63,5.84,15.95l32,30.34v1.38H1944.47V212.33a18.62,18.62,0,0,0-5.85-16.54l-32.14-34.47v-1.38h145.13v70.12c13.46-46.29,56.33-77.4,104-75.44,48.31,0,81,27.18,94.87,78.79,15.36-47.6,59.58-79.53,109.08-78.79,64.67,0,101.3,48.26,101.3,139.46,0,43.53-1.36,93.16-1.94,145.36a15.84,15.84,0,0,0,6.61,16l31.95,30.33v1.38ZM528.46,444.17l43,41.56v1.38H353.14v-1.38L397,444.17a16.81,16.81,0,0,0,5.84-15.95V162.5c0-11.23,0-26.4,1.95-39.4L257.49,492.44h-1.75L103.21,152.65c-3.32-8.46-4.29-9.06-6.43-14.77V360.66A78.18,78.18,0,0,0,104,404.19l61.36,81.55v1.38H2.5v-1.38L63.86,404a78.36,78.36,0,0,0,7.2-43.33V114.44A48,48,0,0,0,60.94,80.76L17.5,23.83V22.46H173.34L303.85,310.23,418.79,22.46H571.31v1.37L528.46,72.09a17.05,17.05,0,0,0-6.63,16.55V428.22a15.85,15.85,0,0,0,6.63,16ZM699.3,311v1.37c0,84.31,43.05,118.19,93.5,118.19a106.05,106.05,0,0,0,99.35-60.87h1.37C876,453,824.94,492.43,748.58,492.43c-82.4,0-160.12-50.23-160.12-166.64,0-122.32,77.92-171.17,164-171.17,69.35,0,143.18,33.09,143.18,139.46V311Zm0-16.94h96V276.94c0-86.67-17.73-109.72-44.42-109.72-32.34,0-52,34.47-52,126.86Z" transform="translate(-2.5 0)"/></svg>