<?xml version="1.0" encoding="utf-8"?>
<!-- Generator: Adobe Illustrator 24.0.3, SVG Export Plug-In . SVG Version: 6.00 Build 0)  -->
<svg version="1.1" id="Layer_1" focusable="false" xmlns="http://www.w3.org/2000/svg" xmlns:xlink="http://www.w3.org/1999/xlink"
	 x="0px" y="0px" viewBox="0 0 32 32" style="enable-background:new 0 0 32 32;" xml:space="preserve">
<style type="text/css">
	.st0{fill:#FCFCFC;}
</style>
<path class="st0" d="M26,29h-0.2C6.2,27.9,3.4,11.3,3,6.2C2.9,4.6,4.1,3.1,5.8,3c0,0,0,0,0,0h5.5c0.8,0,1.6,0.5,1.9,1.3L14.6,8
	c0.3,0.7,0.1,1.6-0.4,2.2l-2.1,2.1c0.7,3.9,3.7,6.9,7.6,7.6l2.2-2.1c0.6-0.6,1.4-0.7,2.2-0.4l3.8,1.5c0.7,0.3,1.2,1,1.2,1.9V26
	C29,27.7,27.7,29,26,29z M6,5C5.4,5,5,5.4,5,6v0.1C5.5,12,8.4,26,25.9,27c0.6,0,1-0.4,1.1-0.9c0,0,0,0,0,0v-5.3l-3.8-1.5l-2.9,2.9
	L19.9,22c-8.7-1.1-9.9-9.8-9.9-9.9l-0.1-0.5l2.8-2.9L11.3,5H6z"/>
<title>Phone</title>
</svg>
