<?xml version="1.0" encoding="utf-8"?>
<!-- Generator: Adobe Illustrator 24.0.3, SVG Export Plug-In . SVG Version: 6.00 Build 0)  -->
<svg version="1.1" id="Layer_1" focusable="false" xmlns="http://www.w3.org/2000/svg" xmlns:xlink="http://www.w3.org/1999/xlink"
	 x="0px" y="0px" viewBox="0 0 32 32" style="enable-background:new 0 0 32 32;" xml:space="preserve">
<style type="text/css">
	.st0{fill:#FFFFFF;}
</style>
<path class="st0" d="M18.3,10c-0.7,0-1.4,0.3-1.9,0.8L16,11.2l-0.4-0.4c-1-1.1-2.7-1.1-3.8-0.1c0,0,0,0-0.1,0.1
	c-1.1,1.1-1.1,2.8,0,3.9L16,19l4.2-4.3c1.1-1.1,1.1-2.8,0-3.9C19.7,10.3,19,10,18.3,10z"/>
<path class="st0" d="M17.7,30L16,29l4-7h6c1.1,0,2-0.9,2-2c0,0,0,0,0,0V8c0-1.1-0.9-2-2-2c0,0,0,0,0,0H6C4.9,6,4,6.9,4,8
	c0,0,0,0,0,0v12c0,1.1,0.9,2,2,2c0,0,0,0,0,0h9v2H6c-2.2,0-4-1.8-4-4c0,0,0,0,0,0V8c0-2.2,1.8-4,4-4c0,0,0,0,0,0h20c2.2,0,4,1.8,4,4
	c0,0,0,0,0,0v12c0,2.2-1.8,4-4,4c0,0,0,0,0,0h-4.8L17.7,30z"/>
<title>Phrase sentiment</title>
</svg>
