<?xml version="1.0" encoding="utf-8"?>
<!-- Generator: Adobe Illustrator 24.0.3, SVG Export Plug-In . SVG Version: 6.00 Build 0)  -->
<svg version="1.1" id="Layer_1" focusable="false" xmlns="http://www.w3.org/2000/svg" xmlns:xlink="http://www.w3.org/1999/xlink"
	 x="0px" y="0px" viewBox="0 0 32 32" style="enable-background:new 0 0 32 32;" xml:space="preserve">
<style type="text/css">
	.st0{fill:#FFFFFF;}
</style>
<path class="st0" d="M27.9,29H30l-6-15h-2.4l-6,15h2.1l1.6-4h6.9L27.9,29z M20.2,23l2.6-6.6l2.6,6.6H20.2z"/>
<path class="st0" d="M18,7V5h-7V2H9v3H2v2h10.7c-0.6,2.3-1.6,4.4-3.2,6.2c-1-1.2-1.8-2.7-2.3-4.2H5.2c0.6,2,1.6,3.9,3,5.6
	C6.7,16,4.9,17.2,3,18l0.8,1.9C5.9,19,7.9,17.6,9.5,16c1.6,1.7,3.6,3,5.8,3.8L16,18c-1.9-0.7-3.7-1.9-5.1-3.4
	c1.9-2.2,3.3-4.8,3.9-7.6H18z"/>
<title>Translate</title>
</svg>
